<?xml version="1.0" encoding="utf-8"?>
<!-- Generator: Adobe Illustrator 20.1.0, SVG Export Plug-In . SVG Version: 6.00 Build 0)  -->
<svg version="1.1" id="Layer_1" xmlns="http://www.w3.org/2000/svg" xmlns:xlink="http://www.w3.org/1999/xlink" x="0px" y="0px"
	 viewBox="0 0 50 50" style="enable-background:new 0 0 50 50;" xml:space="preserve">
<style type="text/css">
	.st0{fill:#03EBC8;}
</style>
<path class="st0" d="M41,24c0-0.2,0-0.5-0.1-0.7c0-0.1-0.1-0.2-0.1-0.3c0-0.1-0.1-0.2-0.1-0.4c0-0.1-0.1-0.2-0.2-0.3
	c0-0.1-0.1-0.2-0.1-0.3c-0.1-0.2-0.3-0.4-0.4-0.5c0,0,0,0,0,0L27.2,8.8c-1.4-1.4-3.6-1.4-4.9,0c-1.4,1.4-1.4,3.6,0,5l6.8,6.8H4.5
	C2.6,20.5,1,22.1,1,24s1.6,3.5,3.5,3.5h24.6l-6.8,6.8c-1.4,1.4-1.4,3.6,0,5c1.4,1.4,3.6,1.4,4.9,0L40,26.5c0,0,0,0,0,0
	c0.2-0.2,0.3-0.3,0.4-0.5c0.1-0.1,0.1-0.2,0.1-0.3c0.1-0.1,0.1-0.2,0.2-0.3c0-0.1,0.1-0.2,0.1-0.4c0-0.1,0.1-0.2,0.1-0.3
	C41,24.5,41,24.2,41,24L41,24L41,24z"/>
</svg>
